PathFileType	4	(X/Y/Z)	/Users/itak/Documents/Research/Walk-IL/dataset/trc/00009_00004.trc
DataRate	CameraRate	NumFrames	NumMarkers	Units	OrigDataRate	OrigDataStartFrame	OrigNumFrames
100.000000	100.000000	4	53	mm	100.000000	472	630
Frame#	Time	RPSI			LPSI			L3			STRN			T10			C7			CLAV			RBAK			LBAK			LSHO			LUPA			LAEL			LAOL			LWTS			LWPS			LFRA			LIFD			LHPS			LHTS			RSHO			RUPA			RAEL			RAOL			RWTS			RWPS			RFRA			RIFD			RHTS			RHPS			RBHD			LFHD			RFHD			LBHD			LHIP			RHIP			RASI			LASI			LKNE			LTHI			LANK			LTIP			LTOE			LMT1			LMT5			LHEE			RKNE			RTHI			RANK			RTIP			RTOE			RMT1			RMT5			RHEE			
		X1	Y1	Z1	X2	Y2	Z2	X3	Y3	Z3	X4	Y4	Z4	X5	Y5	Z5	X6	Y6	Z6	X7	Y7	Z7	X8	Y8	Z8	X9	Y9	Z9	X10	Y10	Z10	X11	Y11	Z11	X12	Y12	Z12	X13	Y13	Z13	X14	Y14	Z14	X15	Y15	Z15	X16	Y16	Z16	X17	Y17	Z17	X18	Y18	Z18	X19	Y19	Z19	X20	Y20	Z20	X21	Y21	Z21	X22	Y22	Z22	X23	Y23	Z23	X24	Y24	Z24	X25	Y25	Z25	X26	Y26	Z26	X27	Y27	Z27	X28	Y28	Z28	X29	Y29	Z29	X30	Y30	Z30	X31	Y31	Z31	X32	Y32	Z32	X33	Y33	Z33	X34	Y34	Z34	X35	Y35	Z35	X36	Y36	Z36	X37	Y37	Z37	X38	Y38	Z38	X39	Y39	Z39	X40	Y40	Z40	X41	Y41	Z41	X42	Y42	Z42	X43	Y43	Z43	X44	Y44	Z44	X45	Y45	Z45	X46	Y46	Z46	X47	Y47	Z47	X48	Y48	Z48	X49	Y49	Z49	X50	Y50	Z50	X51	Y51	Z51	X52	Y52	Z52	X53	Y53	Z53	

473	4.72	1106.599487304688	1053.943115234375	-172.1516876220703	1067.26708984375	1052.0595703125	-331.783935546875	1079.6708984375	1118.969116210938	-255.3753204345703	1296.806396484375	1312.4375	-297.5316162109375	1054.157348632812	1261.082153320312	-247.8945159912109	1094.066528320312	1528.84716796875	-268.537109375	1251.923828125	1436.921997070312	-293.6708679199219	1062.23193359375	1392.622802734375	-178.3755035400391	1058.948974609375	1487.722290039062	-361.528076171875	1147.114013671875	1492.675415039062	-453.3095397949219	1099.921875	1368.869506835938	-522.3696899414062	1086.244384765625	1152.597534179688	-546.6810302734375	1049.7509765625	1140.432983398438	-448.1467895507812	1192.817626953125	905.5453491210938	-508.7129516601562	1109.546875	886.1712646484375	-533.8955688476562	1100.307250976562	1037.02294921875	-554.565185546875	1230.98974609375	724.1119995117188	-492.6376037597656	1147.151123046875	798.3514404296875	-538.691162109375	1215.438110351562	812.73486328125	-525.8521728515625	1207.255737304688	1517.999877929688	-114.1261520385742	1210.642822265625	1447.856689453125	-38.36838912963867	1189.363647460938	1180.497924804688	3.686235427856445	1166.326782226562	1147.339233398438	-87.39546203613281	1345.104370117188	945.4298095703125	-65.59046173095703	1303.6201171875	919.8949584960938	14.10899829864502	1215.302734375	1105.282104492188	15.47593116760254	1392.4052734375	767.007080078125	-91.96812438964844	1399.847045898438	843.416748046875	-63.2071647644043	1360.556274414062	829.2316284179688	-0.08362310379743576	1168.508422851562	1705.750732421875	-202.0208282470703	1333.807495117188	1717.944702148438	-332.600830078125	1340.306762695312	1714.582153320312	-234.4167785644531	1151.649291992188	1715.517333984375	-344.9333190917969	1142.288452148438	960.1033325195312	-464.3760681152344	1243.940795898438	947.491943359375	-100.272102355957	1324.996948242188	982.3696899414062	-194.9583435058594	1266.735717773438	1006.800048828125	-422.4462890625	1289.740478515625	526.2077026367188	-445.4912109375	1227.35986328125	655.7267456054688	-473.6207580566406	1166.899658203125	36.82904052734375	-454.1558837890625	1200.769897460938	288.3935241699219	-466.045654296875	1386.20068359375	46.17167282104492	-392.0290222167969	1326.329345703125	52.19198989868164	-374.1488037109375	1291.4052734375	37.65829086303711	-473.5816345214844	1098.237060546875	43.84951400756836	-400.5882263183594	1256.28857421875	513.1051635742188	-165.1776885986328	1267.9638671875	781.4009399414062	-118.6370468139648	1149.497924804688	30.28834915161133	-195.6955718994141	1234.75927734375	388.0851745605469	-166.3868713378906	1373.6650390625	26.60350227355957	-268.54833984375	1307.395263671875	35.30868530273438	-286.0049743652344	1299.766479492188	27.11763191223145	-191.1607208251953	1087.71240234375	34.02119445800781	-232.9899749755859	
474	4.73	1109.0703125	1053.809448242188	-172.8695526123047	1070.34912109375	1051.864990234375	-332.6005554199219	1082.3662109375	1118.764892578125	-256.2244873046875	1299.536499023438	1312.433471679688	-297.6989440917969	1056.667236328125	1260.92041015625	-248.9066925048828	1096.496826171875	1528.7001953125	-269.336181640625	1254.549560546875	1436.89111328125	-293.97802734375	1064.426879882812	1392.440795898438	-179.3428955078125	1061.797729492188	1487.623046875	-362.5168151855469	1150.25634765625	1492.641357421875	-453.9821472167969	1103.316040039062	1368.760131835938	-523.181396484375	1089.887939453125	1152.507934570312	-547.548828125	1053.110595703125	1140.319213867188	-449.1248779296875	1196.325805664062	905.4500122070312	-509.1881408691406	1113.149536132812	886.0782470703125	-534.6542358398438	1103.98095703125	1036.912231445312	-555.3595581054688	1234.509643554688	724.027587890625	-493.01904296875	1150.765625	798.2628784179688	-539.3222045898438	1219.006591796875	812.6519165039062	-526.2542114257812	1209.198974609375	1517.858764648438	-114.5516357421875	1212.349243164062	1447.6767578125	-38.80043029785156	1191.002807617188	1180.238647460938	2.860754489898682	1168.072998046875	1147.320190429688	-88.36469268798828	1346.894775390625	945.2489624023438	-66.42228698730469	1305.228149414062	919.6415405273438	13.17255878448486	1216.8994140625	1104.999755859375	14.6007251739502	1394.244384765625	766.7902221679688	-92.91886901855469	1401.6689453125	843.253662109375	-64.0780029296875	1362.304321289062	828.9716796875	-1.010560393333435	1171.033569335938	1705.710815429688	-202.543212890625	1336.493041992188	1717.723999023438	-332.9362487792969	1342.875610351562	1714.38818359375	-234.7476654052734	1154.347290039062	1715.463623046875	-345.478271484375	1145.72412109375	959.9226684570312	-464.846923828125	1246.347045898438	947.5275268554688	-100.5336608886719	1327.608642578125	982.375244140625	-194.9902038574219	1270.127807617188	1006.817504882812	-422.7430725097656	1292.056030273438	526.20849609375	-445.5331726074219	1230.109130859375	655.5674438476562	-473.9076232910156	1174.880126953125	35.79874038696289	-454.9459838867188	1205.876831054688	287.8063049316406	-466.5390319824219	1393.925415039062	45.22037887573242	-391.7774658203125	1334.103881835938	51.47877502441406	-374.0255432128906	1299.575073242188	36.59059524536133	-473.8794250488281	1106.004638671875	42.71494293212891	-401.7583923339844	1257.391479492188	512.984375	-165.2745361328125	1269.898681640625	781.2281494140625	-118.8887786865234	1149.483276367188	30.33078575134277	-195.7515869140625	1235.50830078125	388.0321655273438	-166.5154266357422	1373.688354492188	26.56347846984863	-268.5417785644531	1307.408203125	35.29553604125977	-286.0110473632812	1299.768920898438	27.09452438354492	-191.1505584716797	1087.866943359375	34.09414291381836	-232.9345550537109	
475	4.74	1111.479858398438	1053.645141601562	-173.643798828125	1073.4345703125	1051.630981445312	-333.4817504882812	1084.991333007812	1118.534423828125	-257.1523742675781	1302.193359375	1312.421752929688	-297.8812561035156	1059.08447265625	1260.714721679688	-250.0139007568359	1098.826049804688	1528.524291992188	-270.2242431640625	1257.094360351562	1436.853515625	-294.3259887695312	1066.49658203125	1392.220825195312	-180.4033813476562	1064.59716796875	1487.506103515625	-363.613037109375	1153.3525390625	1492.583740234375	-454.7143859863281	1106.682983398438	1368.628295898438	-524.07177734375	1093.51318359375	1152.395629882812	-548.5179443359375	1056.4189453125	1140.193115234375	-450.220703125	1199.788208007812	905.3411865234375	-509.7761535644531	1116.692138671875	885.9615478515625	-535.5284423828125	1107.624267578125	1036.783813476562	-556.26611328125	1237.98583984375	723.948486328125	-493.5259094238281	1154.307495117188	798.1433715820312	-540.0665283203125	1222.531127929688	812.5740356445312	-526.7816772460938	1210.998657226562	1517.694702148438	-115.0177993774414	1213.882934570312	1447.476684570312	-39.27836227416992	1192.436279296875	1179.96142578125	1.962613344192505	1169.640869140625	1147.28369140625	-89.41837310791016	1348.43896484375	944.9682006835938	-67.19221496582031	1306.551391601562	919.3274536132812	12.25859928131104	1218.278076171875	1104.702514648438	13.67961883544922	1395.78515625	766.4664306640625	-93.76876068115234	1403.212524414062	842.9932250976562	-64.86263275146484	1363.741577148438	828.6377563476562	-1.866692543029785	1173.421875	1705.646118164062	-203.1227569580078	1339.062255859375	1717.492309570312	-333.297607421875	1345.311645507812	1714.184814453125	-235.1050720214844	1156.9296875	1715.381713867188	-346.0770874023438	1149.16650390625	959.6941528320312	-465.3395385742188	1248.677490234375	947.568359375	-100.8057403564453	1330.168701171875	982.3909912109375	-195.0128021240234	1273.517700195312	1006.807678222656	-423.0364074707031	1294.257934570312	526.11328125	-445.6491088867188	1232.813842773438	655.3655395507812	-474.2703857421875	1181.978149414062	34.87062454223633	-455.712158203125	1210.522705078125	287.2472534179688	-467.0595092773438	1400.696533203125	43.91398620605469	-391.2254333496094	1340.992065429688	50.58117294311523	-373.6078491210938	1306.882446289062	35.31270980834961	-474.0089111328125	1112.8818359375	41.86776351928711	-402.9812927246094	1258.4990234375	512.8623046875	-165.3708190917969	1271.798950195312	781.0618896484375	-119.1191864013672	1149.468627929688	30.37191963195801	-195.8101043701172	1236.258544921875	387.9614868164062	-166.6488494873047	1373.71337890625	26.52908897399902	-268.5316467285156	1307.421264648438	35.28406524658203	-286.0154113769531	1299.770874023438	27.07248306274414	-191.1376953125	1088.05126953125	34.16457366943359	-232.8750610351562	
476	4.75	1113.82861328125	1053.450439453125	-174.4812622070312	1076.519287109375	1051.358520507812	-334.4354248046875	1087.544555664062	1118.279174804688	-258.1678466796875	1304.780395507812	1312.400756835938	-298.0792236328125	1061.411499023438	1260.464721679688	-251.2186279296875	1101.059326171875	1528.3173828125	-271.2022705078125	1259.560668945312	1436.807006835938	-294.7142028808594	1068.444946289062	1391.96240234375	-181.5580444335938	1067.350708007812	1487.369506835938	-364.8162231445312	1156.405395507812	1492.49853515625	-455.5047607421875	1110.030517578125	1368.475341796875	-525.043212890625	1097.124389648438	1152.257202148438	-549.5869750976562	1059.677368164062	1140.051391601562	-451.433837890625	1203.206909179688	905.2120361328125	-510.4710388183594	1120.180541992188	885.8176879882812	-536.5167846679688	1111.241821289062	1036.633911132812	-557.2828979492188	1241.417846679688	723.8606567382812	-494.1479797363281	1157.782470703125	797.9881591796875	-540.9214477539062	1226.011474609375	812.4874267578125	-527.4242553710938	1212.6630859375	1517.503662109375	-115.5206756591797	1215.24755859375	1447.25439453125	-39.80315780639648	1193.670532226562	1179.664916992188	0.9971139430999756	1171.044799804688	1147.220703125	-90.54881286621094	1349.741455078125	944.5880737304688	-67.89646911621094	1307.595703125	918.950439453125	11.36826515197754	1219.446533203125	1104.387817382812	12.71755409240723	1397.034912109375	766.0477905273438	-94.52616119384766	1404.481567382812	842.6377563476562	-65.56483459472656	1364.868896484375	828.2301025390625	-2.654387950897217	1175.673461914062	1705.555053710938	-203.759765625	1341.514892578125	1717.2509765625	-333.6878356933594	1347.617797851562	1713.973266601562	-235.4906463623047	1159.396240234375	1715.267822265625	-346.7290649414062	1152.615600585938	959.4110717773438	-465.8561096191406	1250.934448242188	947.615966796875	-101.0950698852539	1332.67578125	982.4140625	-195.0300598144531	1276.900146484375	1006.759216308594	-423.3236999511719	1296.338623046875	525.9136962890625	-445.8340454101562	1235.469604492188	655.1156616210938	-474.6927795410156	1188.167358398438	34.03533935546875	-456.4376220703125	1214.681274414062	286.6994018554688	-467.5871887207031	1406.517822265625	42.24808120727539	-390.4495849609375	1346.995239257812	49.48902130126953	-372.9464111328125	1313.2890625	33.84662246704102	-474.0089416503906	1118.858642578125	41.27123641967773	-404.2081604003906	1259.615600585938	512.7412719726562	-165.47509765625	1273.668579101562	780.9028930664062	-119.336296081543	1149.455322265625	30.4113883972168	-195.8715362548828	1237.015747070312	387.8751831054688	-166.7876129150391	1373.740478515625	26.49975967407227	-268.5186767578125	1307.434448242188	35.27370452880859	-286.0194091796875	1299.7724609375	27.05227661132812	-191.1229858398438	1088.260009765625	34.23119354248047	-232.8183746337891	
